REM DIRINDEX 1\6,1\2\7,1\2\8,1\2\9,1\3\10,1\3\11,1\4\12,1\4\13,1\4\14,1\5\15,1\5\16,1\5\17
REM DIRNAME cjc041,folder01,folder02,folder03,folder04,folder05,folder06,folder07,folder08,folder09,folder10,folder11,folder12,folder13,folder14,folder15,folder16
TITLE ""
FILE "3Q_t_0739-0754.mp3" MP3
  TRACK 01 AUDIO
    TITLE "10:cjc041_3088"
    INDEX 01 00:00:00
  TRACK 02 AUDIO
    TITLE "0:"
    INDEX 01 00:00:70
  TRACK 03 AUDIO
    TITLE "11:cjc041_3089"
    INDEX 01 00:01:60
  TRACK 04 AUDIO
    TITLE "0:"
    INDEX 01 00:02:67
  TRACK 05 AUDIO
    TITLE "10:cjc041_3090"
    INDEX 01 00:03:51
  TRACK 06 AUDIO
    TITLE "0:"
    INDEX 01 00:04:64
  TRACK 07 AUDIO
    TITLE "11:cjc041_3091"
    INDEX 01 00:05:42
  TRACK 08 AUDIO
    TITLE "0:"
    INDEX 01 00:06:35
  TRACK 09 AUDIO
    TITLE "10:cjc041_3092"
    INDEX 01 00:07:17
  TRACK 10 AUDIO
    TITLE "0:"
    INDEX 01 00:08:32
  TRACK 11 AUDIO
    TITLE "11:cjc041_3093"
    INDEX 01 00:09:10
  TRACK 12 AUDIO
    TITLE "0:"
    INDEX 01 00:10:04
  TRACK 13 AUDIO
    TITLE "10:cjc041_3094"
    INDEX 01 00:10:59
  TRACK 14 AUDIO
    TITLE "0:"
    INDEX 01 00:11:68
  TRACK 15 AUDIO
    TITLE "11:cjc041_3095"
    INDEX 01 00:12:40
  TRACK 16 AUDIO
    TITLE "0:"
    INDEX 01 00:13:51
  TRACK 17 AUDIO
    TITLE "10:cjc041_3096"
    INDEX 01 00:14:29
  TRACK 18 AUDIO
    TITLE "0:"
    INDEX 01 00:15:38
  TRACK 19 AUDIO
    TITLE "11:cjc041_3097"
    INDEX 01 00:16:12
  TRACK 20 AUDIO
    TITLE "0:"
    INDEX 01 00:17:33
  TRACK 21 AUDIO
    TITLE "10:cjc041_3098"
    INDEX 01 00:18:09
  TRACK 22 AUDIO
    TITLE "0:"
    INDEX 01 00:19:48
  TRACK 23 AUDIO
    TITLE "11:cjc041_3099"
    INDEX 01 00:20:28
  TRACK 24 AUDIO
    TITLE "0:"
    INDEX 01 00:21:70
  TRACK 25 AUDIO
    TITLE "10:cjc041_3100"
    INDEX 01 00:22:48
  TRACK 26 AUDIO
    TITLE "0:"
    INDEX 01 00:23:69
  TRACK 27 AUDIO
    TITLE "11:cjc041_3101"
    INDEX 01 00:24:45
  TRACK 28 AUDIO
    TITLE "0:"
    INDEX 01 00:26:54
  TRACK 29 AUDIO
    TITLE "10:cjc041_3102"
    INDEX 01 00:27:38
  TRACK 30 AUDIO
    TITLE "0:"
    INDEX 01 00:28:55
  TRACK 31 AUDIO
    TITLE "11:cjc041_3103"
    INDEX 01 00:29:34
  TRACK 32 AUDIO
    TITLE "0:"
    INDEX 01 00:30:32
  TRACK 33 AUDIO
    TITLE "10:cjc041_3104"
    INDEX 01 00:31:08
  TRACK 34 AUDIO
    TITLE "0:"
    INDEX 01 00:32:15
  TRACK 35 AUDIO
    TITLE "11:cjc041_3105"
    INDEX 01 00:32:68
  TRACK 36 AUDIO
    TITLE "0:"
    INDEX 01 00:34:71
  TRACK 37 AUDIO
    TITLE "10:cjc041_3106"
    INDEX 01 00:35:49
  TRACK 38 AUDIO
    TITLE "0:"
    INDEX 01 00:36:62
  TRACK 39 AUDIO
    TITLE "11:cjc041_3107"
    INDEX 01 00:37:44
  TRACK 40 AUDIO
    TITLE "0:"
    INDEX 01 00:38:53
  TRACK 41 AUDIO
    TITLE "10:cjc041_3108"
    INDEX 01 00:39:31
  TRACK 42 AUDIO
    TITLE "0:"
    INDEX 01 00:40:62
  TRACK 43 AUDIO
    TITLE "11:cjc041_3109"
    INDEX 01 00:41:40
  TRACK 44 AUDIO
    TITLE "0:"
    INDEX 01 00:42:45
  TRACK 45 AUDIO
    TITLE "10:cjc041_3110"
    INDEX 01 00:43:29
  TRACK 46 AUDIO
    TITLE "0:"
    INDEX 01 00:44:46
  TRACK 47 AUDIO
    TITLE "11:cjc041_3111"
    INDEX 01 00:45:20
  TRACK 48 AUDIO
    TITLE "0:"
    INDEX 01 00:46:21
  TRACK 49 AUDIO
    TITLE "10:cjc041_3112"
    INDEX 01 00:46:72
  TRACK 50 AUDIO
    TITLE "0:"
    INDEX 01 00:48:18
  TRACK 51 AUDIO
    TITLE "11:cjc041_3113"
    INDEX 01 00:48:73
  TRACK 52 AUDIO
    TITLE "0:"
    INDEX 01 00:50:27
  TRACK 53 AUDIO
    TITLE "10:cjc041_3114"
    INDEX 01 00:51:05
  TRACK 54 AUDIO
    TITLE "0:"
    INDEX 01 00:52:08
  TRACK 55 AUDIO
    TITLE "11:cjc041_3115"
    INDEX 01 00:52:63
  TRACK 56 AUDIO
    TITLE "0:"
    INDEX 01 00:53:57
  TRACK 57 AUDIO
    TITLE "10:cjc041_3116"
    INDEX 01 00:54:34
  TRACK 58 AUDIO
    TITLE "0:"
    INDEX 01 00:55:46
  TRACK 59 AUDIO
    TITLE "11:cjc041_3117"
    INDEX 01 00:56:27
  TRACK 60 AUDIO
    TITLE "0:"
    INDEX 01 00:57:46
  TRACK 61 AUDIO
    TITLE "10:cjc041_3118"
    INDEX 01 00:58:22
  TRACK 62 AUDIO
    TITLE "0:"
    INDEX 01 00:59:63
  TRACK 63 AUDIO
    TITLE "11:cjc041_3119"
    INDEX 01 01:00:41
  TRACK 64 AUDIO
    TITLE "0:"
    INDEX 01 01:01:36
